<mxfile host="app.diagrams.net" modified="2021-12-01T23:01:07.408Z" agent="5.0 (Windows NT 10.0; WOW64) AppleWebKit/537.36 (KHTML, like Gecko) Chrome/96.0.4664.45 Safari/537.36" etag="pxw5L9S9opQzwL_xfn7E" version="15.8.3" type="github">
  <diagram name="Page-1" id="929967ad-93f9-6ef4-fab6-5d389245f69c">
    <mxGraphModel dx="981" dy="486" grid="1" gridSize="10" guides="1" tooltips="1" connect="1" arrows="1" fold="1" page="1" pageScale="1.5" pageWidth="1169" pageHeight="826" background="none" math="0" shadow="0">
      <root>
        <mxCell id="0" style=";html=1;" />
        <mxCell id="1" style=";html=1;" parent="0" />
        <mxCell id="1672d66443f91eb5-1" value="&lt;p style=&quot;margin: 0px ; margin-top: 4px ; margin-left: 10px ; text-align: left&quot;&gt;&lt;b&gt;req&lt;/b&gt;&amp;nbsp;[requirement] AC_High Level req [Stakehold needs]&lt;/p&gt;" style="html=1;strokeWidth=1;shape=mxgraph.sysml.package;html=1;overflow=fill;whiteSpace=wrap;fillColor=none;gradientColor=none;fontSize=12;align=center;labelX=327.64;" parent="1" vertex="1">
          <mxGeometry x="70" y="50" width="1630" height="1100" as="geometry" />
        </mxCell>
        <mxCell id="0hMe8zT--C_qmLiAyMyf-6" style="edgeStyle=orthogonalEdgeStyle;rounded=0;orthogonalLoop=1;jettySize=auto;html=1;endArrow=none;endFill=0;startArrow=circlePlus;startFill=0;" parent="1" source="0hMe8zT--C_qmLiAyMyf-1" target="0hMe8zT--C_qmLiAyMyf-4" edge="1">
          <mxGeometry relative="1" as="geometry" />
        </mxCell>
        <mxCell id="0hMe8zT--C_qmLiAyMyf-8" style="edgeStyle=orthogonalEdgeStyle;rounded=0;orthogonalLoop=1;jettySize=auto;html=1;entryX=0.5;entryY=0;entryDx=0;entryDy=0;startArrow=circlePlus;startFill=0;endArrow=none;endFill=0;" parent="1" source="0hMe8zT--C_qmLiAyMyf-1" target="0hMe8zT--C_qmLiAyMyf-5" edge="1">
          <mxGeometry relative="1" as="geometry" />
        </mxCell>
        <mxCell id="0hMe8zT--C_qmLiAyMyf-9" style="edgeStyle=orthogonalEdgeStyle;rounded=0;orthogonalLoop=1;jettySize=auto;html=1;startArrow=circlePlus;startFill=0;endArrow=none;endFill=0;" parent="1" source="0hMe8zT--C_qmLiAyMyf-1" target="0hMe8zT--C_qmLiAyMyf-2" edge="1">
          <mxGeometry relative="1" as="geometry" />
        </mxCell>
        <mxCell id="0hMe8zT--C_qmLiAyMyf-1" value="&lt;p style=&quot;margin: 0px ; margin-top: 4px ; text-align: center&quot;&gt;&amp;lt;&amp;lt;requirement&amp;gt;&amp;gt;&lt;br&gt;&lt;b&gt;Declaração de Missão&lt;/b&gt;&lt;/p&gt;&lt;hr&gt;&lt;p&gt;&lt;/p&gt;&lt;p style=&quot;margin: 0px ; margin-left: 8px ; text-align: left&quot;&gt;text=&quot;Desenvolver um sistema embarcado que simule a interação de um sistema de refrigeração com um veículo, contando com uma interface com o usuário semelhante a de um carro, utilizando ferramentas educaionais de fácil compreensão, que permitam alterações e melhorias no sistema”&lt;br&gt;Id=&quot;R001&quot;&lt;/p&gt;" style="shape=rect;overflow=fill;html=1;whiteSpace=wrap;align=center;" parent="1" vertex="1">
          <mxGeometry x="580" y="160" width="630" height="120" as="geometry" />
        </mxCell>
        <mxCell id="0hMe8zT--C_qmLiAyMyf-35" style="edgeStyle=orthogonalEdgeStyle;rounded=0;orthogonalLoop=1;jettySize=auto;html=1;entryX=0;entryY=0.5;entryDx=0;entryDy=0;startArrow=circlePlus;startFill=0;endArrow=none;endFill=0;exitX=0.031;exitY=1;exitDx=0;exitDy=0;exitPerimeter=0;" parent="1" source="0hMe8zT--C_qmLiAyMyf-2" target="0hMe8zT--C_qmLiAyMyf-32" edge="1">
          <mxGeometry relative="1" as="geometry">
            <mxPoint x="310" y="460" as="sourcePoint" />
            <Array as="points">
              <mxPoint x="310" y="560" />
            </Array>
          </mxGeometry>
        </mxCell>
        <mxCell id="0hMe8zT--C_qmLiAyMyf-2" value="&lt;p style=&quot;margin: 0px ; margin-top: 4px ; text-align: center&quot;&gt;&amp;lt;&amp;lt;requirement&amp;gt;&amp;gt;&lt;br&gt;&lt;b&gt;Educacional&lt;/b&gt;&lt;/p&gt;&lt;hr&gt;&lt;p&gt;&lt;/p&gt;&lt;p style=&quot;margin: 0px ; margin-left: 8px ; text-align: left&quot;&gt;text=&quot;O sistema deve ser facilmente alterado e a simulação deve permitir a demonstração de diversas situações&quot;&lt;br&gt;Id=&quot;R011.&quot;&lt;/p&gt;" style="shape=rect;overflow=fill;html=1;whiteSpace=wrap;align=center;" parent="1" vertex="1">
          <mxGeometry x="300" y="330" width="320" height="120" as="geometry" />
        </mxCell>
        <mxCell id="0hMe8zT--C_qmLiAyMyf-26" style="edgeStyle=orthogonalEdgeStyle;rounded=0;orthogonalLoop=1;jettySize=auto;html=1;entryX=0;entryY=0.5;entryDx=0;entryDy=0;startArrow=circlePlus;startFill=0;endArrow=none;endFill=0;" parent="1" source="0hMe8zT--C_qmLiAyMyf-4" target="0hMe8zT--C_qmLiAyMyf-13" edge="1">
          <mxGeometry relative="1" as="geometry">
            <Array as="points">
              <mxPoint x="710" y="720" />
            </Array>
          </mxGeometry>
        </mxCell>
        <mxCell id="0hMe8zT--C_qmLiAyMyf-27" style="edgeStyle=orthogonalEdgeStyle;rounded=0;orthogonalLoop=1;jettySize=auto;html=1;startArrow=none;startFill=0;endArrow=none;endFill=0;" parent="1" source="0hMe8zT--C_qmLiAyMyf-10" edge="1">
          <mxGeometry relative="1" as="geometry">
            <mxPoint x="709.9999999999998" y="470" as="targetPoint" />
            <Array as="points">
              <mxPoint x="710" y="570" />
            </Array>
          </mxGeometry>
        </mxCell>
        <mxCell id="0hMe8zT--C_qmLiAyMyf-4" value="&lt;p style=&quot;margin: 0px ; margin-top: 4px ; text-align: center&quot;&gt;&amp;lt;&amp;lt;requirement&amp;gt;&amp;gt;&lt;br&gt;&lt;b&gt;Conforto térmico&lt;/b&gt;&lt;/p&gt;&lt;hr&gt;&lt;p&gt;&lt;/p&gt;&lt;p style=&quot;margin: 0px ; margin-left: 8px ; text-align: left&quot;&gt;text=&quot;O sistema deve simular o sistema de ar condicionado de um veículo de passeio.&quot;&lt;br&gt;Id=&quot;R021.&quot;&lt;/p&gt;" style="shape=rect;overflow=fill;html=1;whiteSpace=wrap;align=center;" parent="1" vertex="1">
          <mxGeometry x="700" y="340" width="345" height="120" as="geometry" />
        </mxCell>
        <mxCell id="0hMe8zT--C_qmLiAyMyf-28" style="edgeStyle=orthogonalEdgeStyle;rounded=0;orthogonalLoop=1;jettySize=auto;html=1;entryX=0.004;entryY=0.539;entryDx=0;entryDy=0;entryPerimeter=0;startArrow=circlePlus;startFill=0;endArrow=none;endFill=0;" parent="1" source="0hMe8zT--C_qmLiAyMyf-5" target="0hMe8zT--C_qmLiAyMyf-15" edge="1">
          <mxGeometry relative="1" as="geometry">
            <Array as="points">
              <mxPoint x="1120" y="565" />
            </Array>
          </mxGeometry>
        </mxCell>
        <mxCell id="0hMe8zT--C_qmLiAyMyf-29" style="edgeStyle=orthogonalEdgeStyle;rounded=0;orthogonalLoop=1;jettySize=auto;html=1;entryX=0;entryY=0.5;entryDx=0;entryDy=0;startArrow=circlePlus;startFill=0;endArrow=none;endFill=0;" parent="1" source="0hMe8zT--C_qmLiAyMyf-5" target="0hMe8zT--C_qmLiAyMyf-11" edge="1">
          <mxGeometry relative="1" as="geometry">
            <Array as="points">
              <mxPoint x="1120" y="720" />
            </Array>
          </mxGeometry>
        </mxCell>
        <mxCell id="0hMe8zT--C_qmLiAyMyf-30" style="edgeStyle=orthogonalEdgeStyle;rounded=0;orthogonalLoop=1;jettySize=auto;html=1;entryX=0;entryY=0.5;entryDx=0;entryDy=0;startArrow=circlePlus;startFill=0;endArrow=none;endFill=0;" parent="1" source="0hMe8zT--C_qmLiAyMyf-5" target="0hMe8zT--C_qmLiAyMyf-12" edge="1">
          <mxGeometry relative="1" as="geometry">
            <Array as="points">
              <mxPoint x="1120" y="870" />
            </Array>
          </mxGeometry>
        </mxCell>
        <mxCell id="0hMe8zT--C_qmLiAyMyf-31" style="edgeStyle=orthogonalEdgeStyle;rounded=0;orthogonalLoop=1;jettySize=auto;html=1;entryX=0;entryY=0.5;entryDx=0;entryDy=0;startArrow=circlePlus;startFill=0;endArrow=none;endFill=0;" parent="1" source="0hMe8zT--C_qmLiAyMyf-5" target="0hMe8zT--C_qmLiAyMyf-16" edge="1">
          <mxGeometry relative="1" as="geometry">
            <Array as="points">
              <mxPoint x="1120" y="1030" />
            </Array>
          </mxGeometry>
        </mxCell>
        <mxCell id="0hMe8zT--C_qmLiAyMyf-5" value="&lt;p style=&quot;margin: 0px ; margin-top: 4px ; text-align: center&quot;&gt;&amp;lt;&amp;lt;requirement&amp;gt;&amp;gt;&lt;br&gt;&lt;b&gt;Interface com o usuário&lt;/b&gt;&lt;/p&gt;&lt;hr&gt;&lt;p&gt;&lt;/p&gt;&lt;p style=&quot;margin: 0px ; margin-left: 8px ; text-align: left&quot;&gt;text=&quot;A interface com usuário deve se assemelhar ao painel de veículo de passeio&quot;&lt;br&gt;Id=&quot;R031.&quot;&lt;/p&gt;" style="shape=rect;overflow=fill;html=1;whiteSpace=wrap;align=center;" parent="1" vertex="1">
          <mxGeometry x="1110" y="330" width="330" height="120" as="geometry" />
        </mxCell>
        <mxCell id="0hMe8zT--C_qmLiAyMyf-10" value="&lt;p style=&quot;margin: 0px ; margin-top: 4px ; text-align: center&quot;&gt;&amp;lt;&amp;lt;requirement&amp;gt;&amp;gt;&lt;br&gt;&lt;b&gt;Controle de temperatura&lt;/b&gt;&lt;/p&gt;&lt;hr&gt;&lt;p&gt;&lt;/p&gt;&lt;p style=&quot;margin: 0px ; margin-left: 8px ; text-align: left&quot;&gt;text=&quot;O sistema deve manter a cabine do veículo na temperatura escolhida dentro dos limites pré definidos.&quot;&lt;br&gt;Id=&quot;121.&quot;&lt;/p&gt;" style="shape=rect;overflow=fill;html=1;whiteSpace=wrap;align=center;" parent="1" vertex="1">
          <mxGeometry x="745" y="510" width="300" height="120" as="geometry" />
        </mxCell>
        <mxCell id="0hMe8zT--C_qmLiAyMyf-39" style="edgeStyle=none;rounded=0;orthogonalLoop=1;jettySize=auto;html=1;exitX=0;exitY=0.75;exitDx=0;exitDy=0;entryX=1;entryY=0.5;entryDx=0;entryDy=0;dashed=1;startArrow=none;startFill=0;endArrow=open;endFill=0;" parent="1" source="0hMe8zT--C_qmLiAyMyf-11" target="0hMe8zT--C_qmLiAyMyf-13" edge="1">
          <mxGeometry relative="1" as="geometry" />
        </mxCell>
        <mxCell id="0hMe8zT--C_qmLiAyMyf-40" value="derive" style="edgeLabel;html=1;align=center;verticalAlign=middle;resizable=0;points=[];" parent="0hMe8zT--C_qmLiAyMyf-39" vertex="1" connectable="0">
          <mxGeometry x="0.3104" relative="1" as="geometry">
            <mxPoint as="offset" />
          </mxGeometry>
        </mxCell>
        <mxCell id="0hMe8zT--C_qmLiAyMyf-11" value="&lt;p style=&quot;margin: 0px ; margin-top: 4px ; text-align: center&quot;&gt;&amp;lt;&amp;lt;requirement&amp;gt;&amp;gt;&lt;br&gt;&lt;b&gt;Controle de velocidade do ventilador&lt;/b&gt;&lt;/p&gt;&lt;hr&gt;&lt;p&gt;&lt;/p&gt;&lt;p style=&quot;margin: 0px ; margin-left: 8px ; text-align: left&quot;&gt;text=&quot;O sistema deve permitir o controle de velocidade do ventilador dentre os valores possíveis.&quot;&lt;br&gt;Id=&quot;R231.&quot;&lt;/p&gt;" style="shape=rect;overflow=fill;html=1;whiteSpace=wrap;align=center;" parent="1" vertex="1">
          <mxGeometry x="1140" y="660" width="300" height="120" as="geometry" />
        </mxCell>
        <mxCell id="0hMe8zT--C_qmLiAyMyf-41" style="edgeStyle=none;rounded=0;orthogonalLoop=1;jettySize=auto;html=1;exitX=0;exitY=0.75;exitDx=0;exitDy=0;dashed=1;startArrow=none;startFill=0;endArrow=open;endFill=0;" parent="1" source="0hMe8zT--C_qmLiAyMyf-12" target="0hMe8zT--C_qmLiAyMyf-14" edge="1">
          <mxGeometry relative="1" as="geometry" />
        </mxCell>
        <mxCell id="0hMe8zT--C_qmLiAyMyf-43" value="derive" style="edgeLabel;html=1;align=center;verticalAlign=middle;resizable=0;points=[];" parent="0hMe8zT--C_qmLiAyMyf-41" vertex="1" connectable="0">
          <mxGeometry x="0.2295" relative="1" as="geometry">
            <mxPoint as="offset" />
          </mxGeometry>
        </mxCell>
        <mxCell id="0hMe8zT--C_qmLiAyMyf-12" value="&lt;p style=&quot;margin: 0px ; margin-top: 4px ; text-align: center&quot;&gt;&amp;lt;&amp;lt;requirement&amp;gt;&amp;gt;&lt;br&gt;&lt;b&gt;Escolha da direção do ar&lt;/b&gt;&lt;/p&gt;&lt;hr&gt;&lt;p&gt;&lt;/p&gt;&lt;p style=&quot;margin: 0px ; margin-left: 8px ; text-align: left&quot;&gt;text=&quot;O sistema deve permitir que o usuário escolha a direção da circulação do ar dentro das opções disponíveis.&quot;&lt;br&gt;Id=&quot;R331.&quot;&lt;/p&gt;" style="shape=rect;overflow=fill;html=1;whiteSpace=wrap;align=center;" parent="1" vertex="1">
          <mxGeometry x="1140" y="810" width="300" height="120" as="geometry" />
        </mxCell>
        <mxCell id="0hMe8zT--C_qmLiAyMyf-13" value="&lt;p style=&quot;margin: 0px ; margin-top: 4px ; text-align: center&quot;&gt;&amp;lt;&amp;lt;requirement&amp;gt;&amp;gt;&lt;br&gt;&lt;b&gt;Velocidade do ventilador&lt;/b&gt;&lt;/p&gt;&lt;hr&gt;&lt;p&gt;&lt;/p&gt;&lt;p style=&quot;margin: 0px ; margin-left: 8px ; text-align: left&quot;&gt;text=&quot;O ventilador deve funcionar na velocidade escolhida pelo usuário.&quot;&lt;br&gt;Id=&quot;R221.&quot;&lt;/p&gt;" style="shape=rect;overflow=fill;html=1;whiteSpace=wrap;align=center;" parent="1" vertex="1">
          <mxGeometry x="745" y="660" width="300" height="120" as="geometry" />
        </mxCell>
        <mxCell id="0hMe8zT--C_qmLiAyMyf-14" value="&lt;p style=&quot;margin: 0px ; margin-top: 4px ; text-align: center&quot;&gt;&amp;lt;&amp;lt;requirement&amp;gt;&amp;gt;&lt;br&gt;&lt;b&gt;Direcionadores de ar&lt;/b&gt;&lt;/p&gt;&lt;hr&gt;&lt;p&gt;&lt;/p&gt;&lt;p style=&quot;margin: 0px ; margin-left: 8px ; text-align: left&quot;&gt;text=&quot;Os direcionadores de ar devem abrir e fechar para as direções especificadas.&quot;&lt;br&gt;Id=&quot;R321.&quot;&lt;/p&gt;" style="shape=rect;overflow=fill;html=1;whiteSpace=wrap;align=center;" parent="1" vertex="1">
          <mxGeometry x="745" y="810" width="300" height="120" as="geometry" />
        </mxCell>
        <mxCell id="0hMe8zT--C_qmLiAyMyf-37" style="rounded=0;orthogonalLoop=1;jettySize=auto;html=1;exitX=0;exitY=0.75;exitDx=0;exitDy=0;startArrow=none;startFill=0;endArrow=open;endFill=0;dashed=1;" parent="1" source="0hMe8zT--C_qmLiAyMyf-15" target="0hMe8zT--C_qmLiAyMyf-10" edge="1">
          <mxGeometry relative="1" as="geometry" />
        </mxCell>
        <mxCell id="0hMe8zT--C_qmLiAyMyf-38" value="derive" style="edgeLabel;html=1;align=center;verticalAlign=middle;resizable=0;points=[];" parent="0hMe8zT--C_qmLiAyMyf-37" vertex="1" connectable="0">
          <mxGeometry x="-0.0958" relative="1" as="geometry">
            <mxPoint as="offset" />
          </mxGeometry>
        </mxCell>
        <mxCell id="0hMe8zT--C_qmLiAyMyf-15" value="&lt;p style=&quot;margin: 0px ; margin-top: 4px ; text-align: center&quot;&gt;&amp;lt;&amp;lt;requirement&amp;gt;&amp;gt;&lt;br&gt;&lt;b&gt;Escolha da temperatura&lt;/b&gt;&lt;/p&gt;&lt;hr&gt;&lt;p&gt;&lt;/p&gt;&lt;p style=&quot;margin: 0px ; margin-left: 8px ; text-align: left&quot;&gt;text=&quot;O usuário deve ser capaz de escolher a temperatura desejada dentro dos limites possíveis.&quot;&lt;br&gt;Id=&quot;131.&quot;&lt;/p&gt;" style="shape=rect;overflow=fill;html=1;whiteSpace=wrap;align=center;" parent="1" vertex="1">
          <mxGeometry x="1140" y="500" width="300" height="120" as="geometry" />
        </mxCell>
        <mxCell id="0hMe8zT--C_qmLiAyMyf-16" value="&lt;p style=&quot;margin: 0px ; margin-top: 4px ; text-align: center&quot;&gt;&amp;lt;&amp;lt;requirement&amp;gt;&amp;gt;&lt;br&gt;&lt;b&gt;Indicação do estado atual&lt;/b&gt;&lt;/p&gt;&lt;hr&gt;&lt;p&gt;&lt;/p&gt;&lt;p style=&quot;margin: 0px ; margin-left: 8px ; text-align: left&quot;&gt;text=&quot;O sistema deve indicar a temperatura externa ao veículo&quot;&lt;br&gt;Id=&quot;R431.&quot;&lt;/p&gt;" style="shape=rect;overflow=fill;html=1;whiteSpace=wrap;align=center;" parent="1" vertex="1">
          <mxGeometry x="1140" y="970" width="300" height="120" as="geometry" />
        </mxCell>
        <mxCell id="0hMe8zT--C_qmLiAyMyf-23" style="edgeStyle=orthogonalEdgeStyle;rounded=0;orthogonalLoop=1;jettySize=auto;html=1;entryX=0.198;entryY=1.024;entryDx=0;entryDy=0;entryPerimeter=0;startArrow=none;startFill=0;endArrow=circlePlus;endFill=0;exitX=0;exitY=0.5;exitDx=0;exitDy=0;" parent="1" source="0hMe8zT--C_qmLiAyMyf-14" edge="1">
          <mxGeometry relative="1" as="geometry">
            <mxPoint x="735" y="570" as="sourcePoint" />
            <mxPoint x="710" y="460.0000000000001" as="targetPoint" />
            <Array as="points">
              <mxPoint x="710" y="870" />
            </Array>
          </mxGeometry>
        </mxCell>
        <mxCell id="0hMe8zT--C_qmLiAyMyf-24" value="&lt;br&gt;" style="edgeLabel;html=1;align=center;verticalAlign=middle;resizable=0;points=[];" parent="0hMe8zT--C_qmLiAyMyf-23" vertex="1" connectable="0">
          <mxGeometry x="0.1221" y="-2" relative="1" as="geometry">
            <mxPoint as="offset" />
          </mxGeometry>
        </mxCell>
        <mxCell id="0hMe8zT--C_qmLiAyMyf-32" value="&lt;p style=&quot;margin: 0px ; margin-top: 4px ; text-align: center&quot;&gt;&amp;lt;&amp;lt;requirement&amp;gt;&amp;gt;&lt;br&gt;&lt;b&gt;Open Source&lt;/b&gt;&lt;/p&gt;&lt;hr&gt;&lt;p&gt;&lt;/p&gt;&lt;p style=&quot;margin: 0px ; margin-left: 8px ; text-align: left&quot;&gt;text=&quot;O sistema deve ser desenvolvido com ferramentas open source permitindo fácil alteração e evolução do produto.&quot;&lt;br&gt;Id=&quot;R111.&quot;&lt;/p&gt;" style="shape=rect;overflow=fill;html=1;whiteSpace=wrap;align=center;" parent="1" vertex="1">
          <mxGeometry x="330" y="500" width="300" height="120" as="geometry" />
        </mxCell>
        <mxCell id="0hMe8zT--C_qmLiAyMyf-33" value="&lt;p style=&quot;margin: 0px ; margin-top: 4px ; text-align: center&quot;&gt;&amp;lt;&amp;lt;requirement&amp;gt;&amp;gt;&lt;br&gt;&lt;b&gt;Ilustrativo&lt;/b&gt;&lt;/p&gt;&lt;hr&gt;&lt;p&gt;&lt;/p&gt;&lt;p style=&quot;margin: 0px ; margin-left: 8px ; text-align: left&quot;&gt;text=&quot;O sistema deve permitir que o usuário simule diversas condições externas e visualize a dinâmica.&quot;&lt;br&gt;Id=&quot;R211.&quot;&lt;/p&gt;" style="shape=rect;overflow=fill;html=1;whiteSpace=wrap;align=center;" parent="1" vertex="1">
          <mxGeometry x="330" y="650" width="300" height="120" as="geometry" />
        </mxCell>
        <mxCell id="D09AOkVMXNukeP8XSCzx-1" style="edgeStyle=orthogonalEdgeStyle;rounded=0;orthogonalLoop=1;jettySize=auto;html=1;entryX=0;entryY=0.5;entryDx=0;entryDy=0;startArrow=circlePlus;startFill=0;endArrow=none;endFill=0;exitX=0.032;exitY=0.992;exitDx=0;exitDy=0;exitPerimeter=0;" parent="1" source="0hMe8zT--C_qmLiAyMyf-2" target="0hMe8zT--C_qmLiAyMyf-33" edge="1">
          <mxGeometry relative="1" as="geometry">
            <mxPoint x="319.91999999999985" y="460" as="sourcePoint" />
            <Array as="points">
              <mxPoint x="310" y="460" />
              <mxPoint x="310" y="710" />
            </Array>
            <mxPoint x="340" y="570" as="targetPoint" />
          </mxGeometry>
        </mxCell>
      </root>
    </mxGraphModel>
  </diagram>
</mxfile>
